Patient4_TMGait_0pt7_02_left_37_EMG.mot
version=1
nRows=23
nColumns=33
inDegrees=no
endheader
time	1LAddLong	2LGlutMax	3LGlutMed	4LIliopsoas	5LSemiMemb	6LBicFemLong	7LRecFem	8LVastMed	9LVastLat	10LGasMed	11LTibAnt	12lTibPost	13LPeroneusLong	14LSol	15LExtDigLong	16LFlexDigLong	17RAddLong	18RGlutMax	19RGlutMed	20RIliopsoas	21RSemiMemb	22RBicFemLong	23RRecFem	24RVastMed	25RVastLat	26RGasMed	27RTibAnt	28RTibPost	29RPeroneusLong	30RSol	31RExtDigLong	32RFlexDigLong
43.535	0.009766	-0.41428	-0.024261	0.010834	-0.007019	-0.0383	-0.075531	-0.013428	0.087433	0.004272	0.013885	-0.005951	-0.011749	-0.10849	-0.21347	0.01236	0.009308	0.023041	-0.07431	-0.17197	0.1889	-0.26032	0.25207	-0.16068	0.000916	0.11612	0.35645	-0.10422	-0.055389	-0.55222	-0.001068	-0.010986
43.536	0.015564	-0.42252	0.044556	-0.000153	-0.00351	-0.049744	-0.018768	-0.009766	0.088501	0.026093	-0.031586	0.000305	-0.02655	-0.12695	-0.32044	0.020447	0.029907	0.098114	-0.14633	0.040741	0.067596	-0.086975	0.23483	-0.057983	-0.078583	0.11093	0.11307	-0.11673	0.023956	-0.47882	-0.000305	0.003204
43.537	0.0177	-0.4303	0.018768	-0.016937	0.00061	-0.042877	-0.033112	-0.002136	0.089111	0.076904	0.019836	-0.001221	-0.1004	-0.076141	-0.25452	0.001068	0.05661	0.15137	0.55298	0.41321	-0.11856	-0.00885	0.40558	-0.15778	-0.10498	-0.12085	-0.092468	-0.11093	1.7084	-0.18829	-0.001831	0.008087
43.538	0.019226	-0.40375	-0.009613	-0.002899	-0.013885	-0.041046	-0.01709	-0.006561	0.10025	0.077515	0.045166	-0.002289	-0.14908	-0.025787	-0.009308	-0.008392	0.076752	0.24353	0.39032	0.41367	-0.25055	-0.13412	0.38071	-0.37277	-0.10529	-0.34378	-0.1944	-0.14542	1.2834	0.073853	-0.001678	0.009918
43.539	0.014038	-0.40375	-0.008392	-0.002899	-0.039215	-0.084839	-0.001984	-0.012665	0.077667	0.070801	0.030365	-0.003052	-0.12054	0.033264	0.41214	0.016174	0.030518	0.28015	0.34363	0.15961	-0.32013	0.24567	-0.037537	-0.28778	-0.11597	-0.035706	-0.2803	-0.16449	-0.47897	0.002441	-0.014038	0.003815
43.54	0.016327	-0.38834	-0.020447	-0.003052	-0.022736	-0.097046	0.066223	-0.007172	0.073242	0.045166	-0.002136	-0.006866	-0.079803	0.008545	0.30075	0.01358	-0.022278	0.23529	0.092316	-0.025482	-0.4007	0.67963	-0.36499	-0.1619	-0.22751	0.089722	-0.19898	0.074005	-0.35156	-0.03006	-0.006561	-0.010681
43.541	0.012512	-0.36667	-0.041504	-0.001221	0.002441	-0.090027	0.093689	-0.005798	0.059662	-0.004425	-0.018463	-0.005035	-0.008392	-0.03479	-0.076447	0.014038	-0.089569	0.18997	-0.1062	-0.10727	-0.3244	0.80627	-0.48065	0.17777	-0.016632	0.11841	-0.04364	0.087891	0.069275	0.86411	-0.005646	-0.018158
43.542	0.015106	-0.36011	-0.050659	-0.019989	0.007935	-0.06073	0.072327	0.006561	0.053406	-0.017242	0.092926	-0.000916	0.02594	-0.045624	-0.18601	0.010223	-0.099945	0.16144	-0.055695	-0.015259	-0.070496	0.88226	-0.37186	0.33859	0.15518	0.13519	0.017853	-0.013428	0.44296	1.0963	-0.003815	-0.016785
43.543	0.016479	-0.33798	-0.045929	0.004883	0.008545	-0.014648	0.063477	0.003357	0.043945	-0.061646	0.11704	-0.006866	0.04425	0.003357	-0.21683	-0.003662	-0.076141	0.25559	0.40726	0.053711	0.21301	0.47272	-0.26657	0.17273	0.045166	0.14069	-0.20721	-0.075989	0.44739	0.78095	-0.000305	-0.007324
43.544	0.01297	-0.31097	0.004272	0.001221	-0.010986	-0.014496	0.072479	-0.000458	0.044556	-0.097809	0.14587	-0.005798	0.058136	0.027161	-0.091858	-0.014038	-0.050354	0.34531	2.103	-0.002747	0.23789	0.19745	-0.20691	0.20783	0.18234	0.10376	-0.21652	-0.013733	-0.0354	0.47791	-0.002747	-0.016022
43.545	0.009003	-0.31204	0.067444	-0.00061	-0.023346	-0.001526	0.080414	0.001068	0.030975	-0.027466	0.093536	-0.007019	0.075531	0	-0.0177	-0.005035	0.00473	0.40146	2.1582	-0.019531	0.13504	-0.072021	0.1329	0.16647	0.15366	0.02182	0.010834	-0.029144	-0.087738	0.23392	0.001221	-0.011902
43.546	0.002136	-0.31387	0.077362	0.008392	-0.02533	0.003662	0.066681	-0.00061	0.029755	-0.020905	0.066528	-0.001831	0.034943	-0.029907	0.099792	0.009308	0.028229	0.24826	0.66361	0.059814	0.050354	-0.87631	0.26169	-0.003204	0.044861	0.045013	0.37506	-0.063019	-0.47287	-0.31342	0.00061	-0.003357
43.547	0.007019	-0.32425	0.076141	-0.001526	-0.019379	-0.019684	0.073242	0.008545	0.032806	-0.022888	-0.068054	-0.002594	0.062866	-0.057678	0.29785	0.005798	0.011292	0.087128	-0.48019	0.084686	-0.001678	-0.76813	0.067902	-0.025482	-0.10162	0.10788	0.1619	-0.052643	-0.67734	-0.75302	0.005646	0.002289
43.548	-0.000763	-0.3122	0.08728	0.005341	-0.018158	-0.04303	0.088806	0.001678	0.029907	-0.027924	-0.098724	-0.000153	0.11231	-0.055084	0.40558	0.004425	0.005035	0.04715	-0.82336	0.009003	0.10193	-0.40832	0.11566	0.020752	-0.09201	0.091705	0.10574	-0.052185	-1.4281	-0.54047	0.003052	-0.001678
43.549	0.024109	-0.32745	0.13977	0.008698	0.007782	-0.068054	0.11078	-0.007019	0.043793	-0.032959	-0.18143	-0.008087	0.10971	-0.029297	0.28503	0.011902	0.001068	-0.081329	-1.4844	-0.029449	0.12711	-0.19287	0.094757	0.06134	-0.034332	-0.055389	0.44235	-0.047607	-1.98	-0.49652	0.001831	-0.008698
43.55	0.033417	-0.32425	0.073547	0.006409	0.042877	-0.086823	0.10391	-0.006714	0.04715	-0.00885	-0.067596	-0.006409	0.014954	-0.026398	-0.10544	0.008698	0.035706	0.024414	-1.5356	-0.18036	0.068054	-0.26428	0.067902	-0.009308	0.036926	-0.019836	0.46066	-0.041504	-0.088348	-0.56076	-0.004578	-0.003357
43.551	0.032043	-0.35217	0.016632	0.004578	0.007477	-0.016327	0.081635	-0.008698	0.042267	-0.006104	0.1561	-0.001678	-0.045776	0.059967	-0.30792	0.006866	0.023346	-0.02182	-1.0054	-0.12009	0.023193	-0.26276	0.023956	-0.075989	0.13062	0.0354	0.17639	-0.034943	3.273	-0.55817	0.004425	-0.009003
43.552	0.020142	-0.35996	-0.005188	0.005341	-0.001068	0.005341	0.10803	-0.004883	0.03891	-0.012512	0.22614	-0.003815	-0.06073	0.076294	0.013733	0.006104	0.024872	-0.031433	-0.57053	-0.023499	0.043488	-0.38513	-0.051422	-0.25864	0.19516	0.045471	-0.32761	-0.036011	4.7418	-0.39093	-0.000916	0.006256
43.553	0.018616	-0.34592	-0.046844	0.010071	-0.005341	-0.00946	0.089722	-0.00351	0.029907	-0.011292	-0.055237	0.007324	0.015564	0.05127	-0.071106	0.006866	0.00885	0.05127	-0.30777	0.14008	0.10208	-0.56351	-0.009613	-0.27741	0.081787	0.013275	-0.30319	-0.03006	0.58182	-0.27924	-0.008698	0.001984
43.554	0.018311	-0.32547	-0.046997	0.018311	-0.008698	-0.000916	0.083771	-0.00351	0.021667	-0.025635	-0.17227	-0.003204	0.15198	0.066833	0.035248	0.026703	-0.005798	0.15564	0.16022	0.29846	0.13504	-0.50186	-0.10391	-0.16678	0.057678	0	-0.001068	-0.032654	-3.098	0.011292	-0.00824	0.000305
43.555	0.020599	-0.31601	-0.024872	0.005188	-0.015717	-0.013275	0.081482	-0.003662	0.025482	-0.005493	0.063782	-0.001984	0.051117	0.041046	-0.028381	0.011292	-0.050964	0.21423	0.392	0.14053	0.0914	-0.46524	-0.27237	-0.10666	0.16068	-0.010071	-0.22675	-0.028534	-1.5727	0.005951	-0.000458	-0.001984
43.556	0.016174	-0.29938	0.003204	0.011139	-0.018311	-0.012512	0.093536	0.002594	0.019531	0.014343	0.16129	-0.001984	-0.070496	0.020294	-0.10986	0.008087	-0.023193	0.2771	0.10559	-0.068359	0.052338	-0.36545	-0.041504	-0.021362	0.15823	-0.020752	-0.32044	-0.023499	0.46097	-0.21561	0.001373	-0.001526
43.557	0.014496	-0.34958	0.003204	0.010529	-0.005493	-0.04364	0.076599	-0.000763	0.014801	0.014648	0.090942	-0.004425	-0.033417	0.059204	-0.15167	0.002899	-0.000153	0.20233	0.097961	-0.2655	0.00412	-0.1828	0.22919	-0.10849	0.042572	-0.045166	0.031281	-0.023651	0.34347	-0.18951	-0.001678	-0.005493
